# xmcd CD database file
#
# Track frame offsets:
#	150
#	21108
#	41956
#	64909
#
# Disc length: 1139 seconds
#
# Revision: 1
# Processed by: cddbd v1.5.1PL0 Copyright (c) Steve Scherf et al.
# Submitted via: CDex 1.51
#
DISCID=33047104
DTITLE=BoA - Every Heart -ミンナノキモチ-
DYEAR=2002
DGENRE=JPop
TTITLE0=Every Heart -ミンナノキモチ-
TTITLE1=Every Heart (English Version)
TTITLE2=LISTEN TO MY HEART (Ken Harada's TB-Bassin' Remix)
TTITLE3=Every Heart -ミンナノキモチ- (Instrumental)
EXTD=YEAR: 2002
EXTT0=
EXTT1=
EXTT2=
EXTT3=
PLAYORDER=
